<svg id="Layer_1" height="512" viewBox="0 0 512 512" width="512" xmlns="http://www.w3.org/2000/svg" data-name="Layer 1"><path d="m256 192.426c32.914 0 59.69-27.308 59.69-60.874s-26.776-60.874-59.69-60.874-59.69 27.308-59.69 60.874 26.777 60.874 59.69 60.874zm0-109.748c26.3 0 47.69 21.925 47.69 48.874s-21.39 48.874-47.69 48.874-47.69-21.924-47.69-48.874 21.39-48.874 47.69-48.874z"/><path d="m144.762 108.575a8.007 8.007 0 0 0 -7.976 8.02v30.234a8.007 8.007 0 0 0 7.976 8.02h12.651a103.267 103.267 0 0 0 12.9 31.627l-9.114 9.315a8.089 8.089 0 0 0 0 11.249l20.917 21.377a7.89 7.89 0 0 0 5.684 2.4 7.9 7.9 0 0 0 5.687-2.4l9.007-9.206a98.894 98.894 0 0 0 30.739 12.989v13.2a8.007 8.007 0 0 0 7.976 8.02h29.582a8.007 8.007 0 0 0 7.976-8.02v-13.2a98.9 98.9 0 0 0 30.733-12.988l9.009 9.208a7.948 7.948 0 0 0 11.372 0l20.917-21.38a8.088 8.088 0 0 0 0-11.248l-9.114-9.315a103.307 103.307 0 0 0 12.9-31.627h12.651a8.007 8.007 0 0 0 7.976-8.02v-30.23a8.007 8.007 0 0 0 -7.976-8.02h-12.578a103.263 103.263 0 0 0 -12.849-31.749l9-9.194a8.093 8.093 0 0 0 0-11.248l-20.926-21.389a7.947 7.947 0 0 0 -11.371 0l-8.811 9.015a98.921 98.921 0 0 0 -30.931-13.109v-12.886a8.007 8.007 0 0 0 -7.978-8.02h-29.582a8.007 8.007 0 0 0 -7.976 8.02v12.886a98.921 98.921 0 0 0 -30.933 13.109l-8.814-9.015a7.9 7.9 0 0 0 -5.686-2.39 7.9 7.9 0 0 0 -5.683 2.4l-20.917 21.376a8.093 8.093 0 0 0 0 11.248l8.994 9.192a103.267 103.267 0 0 0 -12.849 31.749zm23.7 5.473a91.531 91.531 0 0 1 13.461-33.321 8.093 8.093 0 0 0 -.959-10.046l-8.484-8.672 15.32-15.656 8.269 8.451a7.932 7.932 0 0 0 10.2.982 87.15 87.15 0 0 1 32.531-13.812 8.03 8.03 0 0 0 6.429-7.859v-12.115h21.534v12.115a8.032 8.032 0 0 0 6.43 7.86 87.124 87.124 0 0 1 32.53 13.809 7.936 7.936 0 0 0 10.2-.979l8.271-8.452 15.318 15.656-8.484 8.672a8.091 8.091 0 0 0 -.961 10.044 91.539 91.539 0 0 1 13.462 33.323 8 8 0 0 0 7.828 6.527h11.852v22.274h-11.909a8 8 0 0 0 -7.823 6.5 91.506 91.506 0 0 1 -13.523 33.206 8.089 8.089 0 0 0 .95 10.058l8.61 8.8-15.314 15.658-8.459-8.645a7.936 7.936 0 0 0 -10.182-.99 87.138 87.138 0 0 1 -32.359 13.694 8.031 8.031 0 0 0 -6.429 7.859v12.435h-21.538v-12.435a8.031 8.031 0 0 0 -6.431-7.859 87.16 87.16 0 0 1 -32.36-13.694 7.94 7.94 0 0 0 -10.183.991l-8.457 8.644-15.318-15.656 8.609-8.8a8.092 8.092 0 0 0 .951-10.061 91.492 91.492 0 0 1 -13.523-33.2 8 8 0 0 0 -7.823-6.506h-11.912v-22.273h11.852a8 8 0 0 0 7.828-6.527z"/><path d="m323.606 273.241h-.125-134.513c-68.356-.002-123.968 54.359-123.968 121.182v101.577a6 6 0 0 0 6 6h370a6 6 0 0 0 6-6v-101.577c0-66.633-55.3-120.878-123.394-121.182zm-50.48 12-9.474 41.12h-15.3l-9.474-41.12zm-20.862 53.12h7.472l20.98 88.627-25.043 26.526-24.4-26.48zm182.736 151.639h-358v-95.577c0-60.2 50.229-109.184 111.968-109.184h37.591l10.327 44.819c.011.047.023.093.034.14a10.765 10.765 0 0 0 3.606 5.651l-21.665 91.522a6 6 0 0 0 1.427 5.448l30.92 33.555a5.993 5.993 0 0 0 4.375 1.934h.037a6 6 0 0 0 4.362-1.881l31.681-33.555a6 6 0 0 0 1.476-5.5l-21.665-91.522a10.759 10.759 0 0 0 3.606-5.651c.011-.047.023-.093.034-.14l10.327-44.819h37.591c61.74 0 111.968 48.98 111.968 109.184z"/><path d="m386.184 364.031h-47.493a6 6 0 0 0 0 12h47.493a6 6 0 0 0 0-12z"/></svg>