<svg height="472pt" viewBox="-50 0 472 472.25654" width="472pt" xmlns="http://www.w3.org/2000/svg"><path d="m215.910156.117188c-1.507812-.054688-3.019531-.0898442-4.535156-.1054692-94.257812-1.0781248-172.644531 72.2617192-177.835938 166.3789062-.179687 2.957031-.253906 28.300781-.269531 34.582031l-32.25 84.472656c-1.589843 4.167969-1.0312498 8.851563 1.5 12.527344 2.53125 3.675782 6.707031 5.871094 11.171875 5.871094h44.148438v49.835938c0 11.839843 4.796875 23.179687 13.292968 31.429687 8.496094 8.25 19.96875 12.707031 31.808594 12.359375 1.988282-.0625 19.585938-.167969 49.550782-.292969h.078124c8.183594-.007812 15.390626 5.394531 17.671876 13.257813v55.824218c0 3.3125 2.6875 6 6 6h151.777343c1.65625 0 3.234375-.683593 4.367188-1.886718 1.136719-1.203125 1.722656-2.820313 1.625-4.46875-.0625-1-5.902344-101.257813-.015625-164.5 1.601562-17.179688 17.980468-58.328125 19.457031-62 26.164063-50.0625 24.699219-110.070313-3.871094-158.796875-28.148437-48.402344-78.117187-78.488281-133.671875-80.488281zm126.765625 233.988281c-.089843.171875-.171875.347656-.242187.523437-.757813 1.871094-18.558594 46.007813-20.386719 65.660156-5.105469 54.839844-1.539063 136.714844-.359375 159.964844h-139.449219v-50.617187c0-.492188-.058593-.984375-.179687-1.464844-3.378906-13.53125-15.546875-23.015625-29.492188-23h-.132812c-21.269532.089844-47.1875.214844-49.871094.300781-8.59375.25-16.917969-2.992187-23.082031-8.984375-6.164063-5.988281-9.644531-14.21875-9.640625-22.816406v-55.832031c0-3.3125-2.6875-6-6-6h-50.152344c-.511719 0-.992188-.25-1.285156-.675782-.289063-.421874-.355469-.960937-.171875-1.441406l32.640625-85.5c.257812-.675781.394531-1.398437.394531-2.125.03125-12.390625.125-32.84375.253906-35.015625 4.820313-87.71875 77.875-156.082031 165.722657-155.070312 1.417968.015625 2.828124.046875 4.238281.097656 25.949219.773437 51.222656 8.429687 73.242187 22.183594 67.207032 42.4375 90.664063 129.3125 53.953125 199.8125zm0 0"/><path d="m214.886719 29.917969c-63.683594-.003907-115.3125 51.625-115.3125 115.308593 0 63.683594 51.625 115.3125 115.3125 115.3125 63.683593 0 115.308593-51.625 115.308593-115.3125-.070312-63.652343-51.652343-115.238281-115.308593-115.308593zm0 218.621093c-57.058594 0-103.3125-46.253906-103.3125-103.3125 0-57.058593 46.253906-103.3125 103.3125-103.3125 57.058593 0 103.3125 46.257813 103.308593 103.3125-.0625 57.03125-46.277343 103.246094-103.308593 103.3125zm0 0"/><path d="m250.644531 114.316406-49.089843 49.09375-22.425782-22.425781c-2.347656-2.308594-6.121094-2.296875-8.449218.035156-2.332032 2.328125-2.347657 6.101563-.035157 8.449219l26.667969 26.667969c2.339844 2.34375 6.140625 2.34375 8.484375 0l53.332031-53.332031c2.34375-2.34375 2.34375-6.144532 0-8.488282-2.34375-2.339844-6.140625-2.34375-8.484375 0zm0 0"/></svg>