<?xml version="1.0" encoding="iso-8859-1"?>
<!-- Generator: Adobe Illustrator 19.0.0, SVG Export Plug-In . SVG Version: 6.00 Build 0)  -->
<svg version="1.1" id="Capa_1" xmlns="http://www.w3.org/2000/svg" xmlns:xlink="http://www.w3.org/1999/xlink" x="0px" y="0px"
	 viewBox="0 0 512 512" style="enable-background:new 0 0 512 512;" xml:space="preserve">
<g>
	<g>
		<path d="M326.016,342h-69.994c-8.284,0-14.999,6.716-14.999,15v31.16c-61.369-6.921-110.229-55.786-117.149-117.16h31.157
			c8.284,0,14.999-6.716,14.999-15v-70c0-24.813-20.185-45-44.996-45H36.712c-5.871,0-11.202,3.425-13.642,8.765
			c-42.792,93.651-26.357,209.141,51.844,287.353c79.585,79.595,195.615,93.772,287.334,51.855c5.339-2.44,8.764-7.772,8.764-13.643
			V387C371.012,362.187,350.827,342,326.016,342z M341.016,465.472c-78.941,32.143-176.958,18.372-244.889-49.567
			C28.887,348.658,14.01,250.976,46.569,171h78.466c8.271,0,14.999,6.729,14.999,15v55h-31.997c-8.284,0-14.999,6.716-14.999,15
			c0,89.879,73.115,163,162.985,163c8.284,0,14.999-6.716,14.999-15v-32h54.995c8.271,0,14.999,6.729,14.999,15V465.472z"/>
	</g>
</g>
<g>
	<g>
		<path d="M256.022,0c-8.284,0-14.999,6.716-14.999,15s6.716,15,14.999,15c124.91,0,225.98,101.09,225.98,226
			c0,8.284,6.716,15,14.999,15c8.284,0,14.999-6.716,14.999-15C512,114.497,397.501,0,256.022,0z"/>
	</g>
</g>
<g>
	<g>
		<path d="M256.023,60c-8.284,0-14.999,6.716-14.999,15s6.716,15,14.999,15c91.524,0,165.985,74.467,165.985,166
			c0,8.284,6.716,15,14.999,15s14.998-6.716,14.999-15C452.006,147.925,364.088,60,256.023,60z"/>
	</g>
</g>
<g>
	<g>
		<path d="M256.022,120c-8.284,0-14.999,6.716-14.999,15s6.716,15,14.999,15c58.444,0,105.991,47.551,105.991,106
			c0,8.284,6.716,15,14.999,15s14.999-6.716,14.998-15C392.01,181.009,331.006,120,256.022,120z"/>
	</g>
</g>
<g>
</g>
<g>
</g>
<g>
</g>
<g>
</g>
<g>
</g>
<g>
</g>
<g>
</g>
<g>
</g>
<g>
</g>
<g>
</g>
<g>
</g>
<g>
</g>
<g>
</g>
<g>
</g>
<g>
</g>
</svg>
