<svg height="512" viewBox="0 0 510.328 510.328" width="512" xmlns="http://www.w3.org/2000/svg"><path d="M404.688 235.939a7.501 7.501 0 0 0-4.521 9.595c6 16.695 9.043 34.227 9.043 52.107 0 23.1-4.993 45.317-14.84 66.037a7.5 7.5 0 0 0 13.549 6.438c10.81-22.747 16.291-47.13 16.291-72.475 0-19.615-3.34-38.854-9.928-57.181-1.4-3.898-5.699-5.918-9.594-4.521zM388.896 388.594a7.5 7.5 0 0 0-10.502 1.491c-14.062 18.713-32.48 34.217-53.266 44.833-21.784 11.127-45.323 16.769-69.965 16.769-84.941 0-154.046-69.104-154.046-154.046s69.104-154.046 154.046-154.046c17.565 0 34.812 2.942 51.261 8.746a7.5 7.5 0 0 0 9.567-4.578 7.5 7.5 0 0 0-4.577-9.568c-18.056-6.37-36.981-9.6-56.251-9.6-93.212 0-169.046 75.834-169.046 169.046s75.833 169.046 169.046 169.046c27.036 0 52.871-6.194 76.787-18.41 22.806-11.648 43.012-28.655 58.436-49.181a7.5 7.5 0 0 0-1.49-10.502z"/><path d="m420.856 169.792-27.509-11.103-11.215-27.462a14.376 14.376 0 0 0-10.508-8.681 14.384 14.384 0 0 0-13.042 3.96l-29.697 29.82a14.381 14.381 0 0 0-3.131 15.616l12.749 31.217-8.4 8.444c-20.066-17.501-46.286-28.116-74.94-28.116-25.453 0-49.54 8.202-69.657 23.719a7.5 7.5 0 0 0-1.358 10.519 7.498 7.498 0 0 0 10.519 1.358c17.469-13.474 38.388-20.596 60.496-20.596 24.532 0 47.008 8.96 64.338 23.773l-27.831 27.98c-10.113-7.807-22.772-12.467-36.506-12.467-33.011 0-59.868 26.856-59.868 59.868s26.856 59.868 59.868 59.868c33.011 0 59.867-26.856 59.867-59.868 0-13.881-4.762-26.663-12.72-36.828l27.834-27.981c15.053 17.392 24.171 40.056 24.171 64.809 0 54.673-44.479 99.153-99.152 99.153s-99.153-44.48-99.153-99.153c0-20.568 6.242-40.296 18.052-57.052a7.5 7.5 0 0 0-1.81-10.451 7.5 7.5 0 0 0-10.451 1.81c-13.602 19.298-20.792 42.015-20.792 65.693 0 62.944 51.209 114.153 114.153 114.153 62.943 0 114.152-51.209 114.152-114.153 0-28.903-10.803-55.327-28.577-75.459l8.405-8.449 31.226 12.603a14.381 14.381 0 0 0 15.603-3.193l29.699-29.821c3.417-3.432 4.878-8.313 3.906-13.058s-4.23-8.659-8.721-10.472zm-52.273-32.069 10.196 24.966-14.126 14.184-.007.006-.533.536-14.128 14.185-10.195-24.966zm-68.552 159.918c0 24.74-20.127 44.868-44.867 44.868s-44.868-20.127-44.868-44.868 20.127-44.868 44.868-44.868c9.608 0 18.513 3.046 25.821 8.208l-31.205 31.37a7.5 7.5 0 0 0 10.635 10.58l31.216-31.381c5.279 7.358 8.4 16.364 8.4 26.091zm85.591-85.361-24.996-10.089 14.483-14.559 14.298-14.357 25.009 10.094z"/><path d="M470.239 58.623h-35.671V39.399c0-12.903-10.498-23.401-23.401-23.401s-23.401 10.498-23.401 23.401v19.225h-31.199V39.399c0-12.903-10.498-23.401-23.401-23.401s-23.4 10.498-23.4 23.401v19.225h-31.199V39.399c0-12.903-10.498-23.401-23.401-23.401s-23.401 10.498-23.401 23.401v19.225h-31.2V39.399c0-12.903-10.498-23.401-23.401-23.401s-23.401 10.498-23.401 23.401v19.225h-31.2V39.399c0-12.903-10.498-23.401-23.401-23.401S75.76 26.495 75.76 39.399v19.225H40.089C17.984 58.623 0 76.607 0 98.712v355.529c0 22.105 17.984 40.089 40.089 40.089h430.15c22.105 0 40.089-17.984 40.089-40.089V98.712c0-22.105-17.983-40.089-40.089-40.089zm-67.473-19.224c0-4.632 3.769-8.401 8.401-8.401s8.401 3.769 8.401 8.401v41.274c0 4.632-3.769 8.401-8.401 8.401s-8.401-3.769-8.401-8.401zm-78.001 0c0-4.632 3.769-8.401 8.4-8.401 4.633 0 8.401 3.769 8.401 8.401v41.274c0 4.632-3.769 8.401-8.401 8.401s-8.4-3.769-8.4-8.401zm-78.002 0c0-4.632 3.769-8.401 8.401-8.401 4.633 0 8.401 3.769 8.401 8.401v41.274c0 4.632-3.769 8.401-8.401 8.401s-8.401-3.769-8.401-8.401zm-78.001 0c0-4.632 3.769-8.401 8.401-8.401s8.401 3.769 8.401 8.401v41.274c0 4.632-3.769 8.401-8.401 8.401s-8.401-3.769-8.401-8.401zm-78.002 0c0-4.632 3.769-8.401 8.401-8.401s8.401 3.769 8.401 8.401v41.274c0 4.632-3.769 8.401-8.401 8.401s-8.401-3.769-8.401-8.401zM470.239 479.33H40.089C26.255 479.33 15 468.075 15 454.241V155.228h121.077a7.5 7.5 0 0 0 0-15H15V98.712c0-13.834 11.255-25.089 25.089-25.089H75.76v7.05c0 12.903 10.498 23.401 23.401 23.401s23.401-10.498 23.401-23.401v-7.05h31.2v7.05c0 12.903 10.498 23.401 23.401 23.401s23.401-10.498 23.401-23.401v-7.05h31.2v7.05c0 12.903 10.498 23.401 23.401 23.401s23.401-10.498 23.401-23.401v-7.05h31.199v7.05c0 12.903 10.497 23.401 23.4 23.401s23.401-10.498 23.401-23.401v-7.05h31.199v7.05c0 12.903 10.498 23.401 23.401 23.401s23.401-10.498 23.401-23.401v-7.05h35.671c13.834 0 25.089 11.255 25.089 25.089v41.516h-72.954c-4.143 0-7.5 3.358-7.5 7.5s3.357 7.5 7.5 7.5h72.954v299.014c.001 13.833-11.254 25.088-25.088 25.088z"/></svg>