<svg height="512" width="512" xmlns="http://www.w3.org/2000/svg"><path d="M96 168h36.687l-5.373 5.373a24.97 24.97 0 1 0 35.313 35.313L203.313 168H216v8a8 8 0 0 0 8 8h80v-16h-72V72h208V56H224a8 8 0 0 0-8 8v8h-12.773a89.31 89.31 0 0 0-61.168-24H96a32.036 32.036 0 0 0-32 32v56a32.036 32.036 0 0 0 32 32zM80 80a16.019 16.019 0 0 1 16-16h46.059a73.455 73.455 0 0 1 52.284 21.657A8 8 0 0 0 200 88h16v64h-16a8 8 0 0 0-5.657 2.343l-43.029 43.03a8.971 8.971 0 0 1-12.687-12.687l19.03-19.029A8 8 0 0 0 152 152H96a16.019 16.019 0 0 1-16-16z"/><path d="M248 88h16v16h-16zM294.067 383.215l-18.343-31.771 7.338 1.967a24.971 24.971 0 1 0 12.926-48.24l-55.578-14.892-6.343-10.987 6.928-4a8 8 0 0 0 2.928-10.928L203.2 193.829l-13.856 8 36.723 63.607-83.138 48L38.928 133.3l-13.856 8 108 187.061A8 8 0 0 0 144 331.292l6.928-4 6.387 11.063a89.308 89.308 0 0 0 9.8 64.972l23.03 39.888a31.785 31.785 0 0 0 19.43 14.91 32.169 32.169 0 0 0 8.335 1.1 31.808 31.808 0 0 0 15.947-4.3l48.5-28a32.037 32.037 0 0 0 11.71-43.71zm-19.713 29.857-48.5 28A16 16 0 0 1 204 435.215l-23.029-39.888a73.457 73.457 0 0 1-7.387-56.108 8 8 0 0 0-.8-6.07l-8-13.857 55.425-32 8 13.857a8 8 0 0 0 4.858 3.727l58.779 15.75a8.971 8.971 0 1 1-4.643 17.33l-26-6.966a8 8 0 0 0-9 11.728l28 48.5a16.018 16.018 0 0 1-5.849 21.854z"/><path d="m140.781 277.715 13.856-8 8 13.856-13.856 8zM472 122.375l-48.5-28a32.037 32.037 0 0 0-43.713 11.712l-18.344 31.771-1.966-7.338a24.971 24.971 0 0 0-48.24 12.925l14.893 55.578-6.343 10.987-6.929-4a8 8 0 0 0-10.928 2.928L261.653 278.7l13.856 8 36.277-62.833 83.138 48-104 180.133 13.857 8 108-187.062a8 8 0 0 0-2.928-10.928l-6.929-4 6.387-11.062a89.306 89.306 0 0 0 51.368-40.972l23.03-39.889A32.036 32.036 0 0 0 472 122.375zm-2.143 35.712-23.03 39.889a73.453 73.453 0 0 1-44.9 34.45 8 8 0 0 0-4.858 3.728l-8 13.856-55.426-32 8-13.856a8 8 0 0 0 .8-6.071l-15.75-58.778a8.971 8.971 0 1 1 17.33-4.644l6.965 25.994a8 8 0 0 0 14.656 1.929l28-48.5a16.018 16.018 0 0 1 21.857-5.856l48.5 28a16.018 16.018 0 0 1 5.852 21.859z"/><path d="m351.205 283.588 8-13.856 13.856 8-8 13.856z"/></svg>